<svg xmlns="http://www.w3.org/2000/svg" id="mainsvg" width="268.32421875" height="252" viewBox="-10 -10 268.32421875 252"><defs><marker id="arrow" viewBox="0 0 10 10" refX="10" refY="5" markerWidth="6" markerHeight="6" orient="auto-start-reverse"><path d="M 0 0 L 10 5 L 0 10 z"/></marker><filter id="shadowfilter" x="-20%" y="-20%" width="150%" height="150%" filterUnits="objectBoundingBox" primitiveUnits="userSpaceOnUse" color-interpolation-filters="linearRGB"><feDropShadow stdDeviation="4 4" in="SourceGraphic" dx="1" dy="1" flood-color="#BABABA" flood-opacity="0.9" x="0%" y="0%" width="100%" height="100%" result="dropShadow"/></filter><filter id="shadowfilter2" x="0" y="0" width="200%" height="200%" filterUnits="userSpaceOnUse" color-interpolation-filters="sRGB"><feFlood flood-opacity="0" result="BackgroundImageFix"/><feColorMatrix in="SourceAlpha" type="matrix" values="0 0 0 0 0 0 0 0 0 0 0 0 0 0 0 0 0 0 127 0"/><feOffset dy="4" dx="2"/><feGaussianBlur stdDeviation="2"/><feColorMatrix type="matrix" values="0 0 0 0 0 0 0 0 0 0 0 0 0 0 0 0 0 0 0.25 0"/><feBlend mode="normal" in2="BackgroundImageFix" result="effect1_dropShadow"/><feBlend mode="normal" in="SourceGraphic" in2="effect1_dropShadow" result="shape"/></filter></defs><path transform="rotate(0,0, 0) scale(1)" d="M124.162109375,32L124.162109375,37.666666666666664C124.162109375,43.333333333333336,124.162109375,54.666666666666664,124.162109375,66C124.162109375,77.33333333333333,124.162109375,88.66666666666667,124.162109375,94.33333333333333L124.162109375,100" stroke="black" stroke-dasharray="none" stroke-width="1" fill="none" marker-end="url(#arrow)"/><g transform="translate(85.7177734375, 66)"><rect width="69.279296875" height="18" stroke="none" fill="white" stroke-width="1" transform="translate(0, 0)" rx="5"/><text fill="black" font-size="14" font-weight="normal" transform="translate(1, 9)" alignment-baseline="middle">push stream</text></g><path transform="rotate(0,0, 0) scale(1)" d="M99.4345703125,128.43322072514437L86.98225911458333,134.69435060428697C74.52994791666667,140.95548048342957,49.625325520833336,153.47774024171477,37.173014322916664,165.40553678752406C24.720703125,177.33333333333334,24.720703125,188.66666666666666,24.720703125,194.33333333333334L24.720703125,200" stroke="black" stroke-dasharray="none" stroke-width="1" fill="none" marker-end="url(#arrow)"/><path transform="rotate(0,0, 0) scale(1)" d="M124.162109375,132L124.162109375,137.66666666666666C124.162109375,143.33333333333334,124.162109375,154.66666666666666,124.162109375,166C124.162109375,177.33333333333334,124.162109375,188.66666666666666,124.162109375,194.33333333333334L124.162109375,200" stroke="black" stroke-dasharray="none" stroke-width="1" fill="none" marker-end="url(#arrow)"/><path transform="rotate(0,0, 0) scale(1)" d="M148.8896484375,128.43322072514437L161.34195963541666,134.69435060428697C173.79427083333334,140.95548048342957,198.69889322916666,153.47774024171477,211.15120442708334,165.40553678752406C223.603515625,177.33333333333334,223.603515625,188.66666666666666,223.603515625,194.33333333333334L223.603515625,200" stroke="black" stroke-dasharray="none" stroke-width="1" fill="none" marker-end="url(#arrow)"/><g transform="translate(99.4345703125, 100)"><rect width="49.455078125" height="32" stroke="#555656" fill="white" stroke-width="1.3" transform="translate(0, 0)" rx="2" filter="url(#shadowfilter)"/><text fill="black" font-size="14" font-weight="normal" transform="translate(8, 16)" alignment-baseline="middle" font-family="Bookman"> origin </text></g><g transform="translate(102.5380859375, 0)"><rect width="43.248046875" height="32" stroke="#555656" fill="white" stroke-width="1.3" transform="translate(0, 0)" rx="2" filter="url(#shadowfilter)"/><text fill="black" font-size="14" font-weight="normal" transform="translate(8, 16)" alignment-baseline="middle" font-family="Bookman"> OBS </text></g><g transform="translate(0, 200)"><rect width="49.44140625" height="32" stroke="#555656" fill="white" stroke-width="1.3" transform="translate(0, 0)" rx="2" filter="url(#shadowfilter)"/><text fill="black" font-size="14" font-weight="normal" transform="translate(8, 16)" alignment-baseline="middle" font-family="Bookman"> edge1 </text></g><g transform="translate(99.44140625, 200)"><rect width="49.44140625" height="32" stroke="#555656" fill="white" stroke-width="1.3" transform="translate(0, 0)" rx="2" filter="url(#shadowfilter)"/><text fill="black" font-size="14" font-weight="normal" transform="translate(8, 16)" alignment-baseline="middle" font-family="Bookman"> edge2 </text></g><g transform="translate(198.8828125, 200)"><rect width="49.44140625" height="32" stroke="#555656" fill="white" stroke-width="1.3" transform="translate(0, 0)" rx="2" filter="url(#shadowfilter)"/><text fill="black" font-size="14" font-weight="normal" transform="translate(8, 16)" alignment-baseline="middle" font-family="Bookman"> edge3 </text></g></svg>