<svg xmlns="http://www.w3.org/2000/svg" id="mainsvg" width="160.4345703125" height="252" viewBox="-10 -10 160.4345703125 252"><defs><marker id="arrow" viewBox="0 0 10 10" refX="10" refY="5" markerWidth="6" markerHeight="6" orient="auto-start-reverse"><path d="M 0 0 L 10 5 L 0 10 z"/></marker><filter id="shadowfilter" x="-20%" y="-20%" width="150%" height="150%" filterUnits="objectBoundingBox" primitiveUnits="userSpaceOnUse" color-interpolation-filters="linearRGB"><feDropShadow stdDeviation="4 4" in="SourceGraphic" dx="1" dy="1" flood-color="#BABABA" flood-opacity="0.9" x="0%" y="0%" width="100%" height="100%" result="dropShadow"/></filter><filter id="shadowfilter2" x="0" y="0" width="200%" height="200%" filterUnits="userSpaceOnUse" color-interpolation-filters="sRGB"><feFlood flood-opacity="0" result="BackgroundImageFix"/><feColorMatrix in="SourceAlpha" type="matrix" values="0 0 0 0 0 0 0 0 0 0 0 0 0 0 0 0 0 0 127 0"/><feOffset dy="4" dx="2"/><feGaussianBlur stdDeviation="2"/><feColorMatrix type="matrix" values="0 0 0 0 0 0 0 0 0 0 0 0 0 0 0 0 0 0 0.25 0"/><feBlend mode="normal" in2="BackgroundImageFix" result="effect1_dropShadow"/><feBlend mode="normal" in="SourceGraphic" in2="effect1_dropShadow" result="shape"/></filter></defs><path transform="rotate(0,0, 0) scale(1)" d="M79.1044921875,32L79.1044921875,37.666666666666664C79.1044921875,43.333333333333336,79.1044921875,54.666666666666664,79.1044921875,66C79.1044921875,77.33333333333333,79.1044921875,88.66666666666667,79.1044921875,94.33333333333333L79.1044921875,100" stroke="black" stroke-dasharray="none" stroke-width="1" fill="none" marker-end="url(#arrow)"/><g transform="translate(0, 66)"><rect width="140.4345703125" height="18" stroke="none" fill="white" stroke-width="1" transform="translate(0, 0)" rx="5"/><text fill="black" font-size="14" font-weight="normal" transform="translate(1, 1)" alignment-baseline="middle"><tspan x="0" dy="14">has and belongs to many</tspan></text></g><path transform="rotate(0,0, 0) scale(1)" d="M79.1044921875,132L79.1044921875,137.66666666666666C79.1044921875,143.33333333333334,79.1044921875,154.66666666666666,79.1044921875,166C79.1044921875,177.33333333333334,79.1044921875,188.66666666666666,79.1044921875,194.33333333333334L79.1044921875,200" stroke="black" stroke-dasharray="none" stroke-width="1" fill="none" marker-end="url(#arrow)"/><g transform="translate(0, 166)"><rect width="140.4345703125" height="18" stroke="none" fill="white" stroke-width="1" transform="translate(0, 0)" rx="5"/><text fill="black" font-size="14" font-weight="normal" transform="translate(1, 1)" alignment-baseline="middle"><tspan x="0" dy="14">has and belongs to many</tspan></text></g><g transform="translate(57.876953125, 100)"><rect width="42.455078125" height="32" stroke="#555656" fill="white" stroke-width="1.3" transform="translate(0, 0)" rx="2" filter="url(#shadowfilter)"/><text fill="black" font-size="14" font-weight="normal" transform="translate(8, 8)" alignment-baseline="middle" font-family="Bookman"><tspan x="0" dy="14">Role</tspan></text></g><g transform="translate(57.88037109375, 0)"><rect width="42.4482421875" height="32" stroke="#555656" fill="white" stroke-width="1.3" transform="translate(0, 0)" rx="2" filter="url(#shadowfilter)"/><text fill="black" font-size="14" font-weight="normal" transform="translate(8, 8)" alignment-baseline="middle" font-family="Bookman"><tspan x="0" dy="14">User</tspan></text></g><g transform="translate(39.98388671875, 200)"><rect width="78.2412109375" height="32" stroke="#555656" fill="white" stroke-width="1.3" transform="translate(0, 0)" rx="2" filter="url(#shadowfilter)"/><text fill="black" font-size="14" font-weight="normal" transform="translate(8, 8)" alignment-baseline="middle" font-family="Bookman"><tspan x="0" dy="14">Permission</tspan></text></g></svg>